<svg id="visual" viewBox="0 0 900 600" width="900" height="600" xmlns="http://www.w3.org/2000/svg" xmlns:xlink="http://www.w3.org/1999/xlink" version="1.1"><g stroke-width="1" stroke-linejoin="bevel"><path d="M507 331L365 304L476 396Z" fill="#0f0f0f" stroke="#0f0f0f"></path><path d="M365 304L368 374L476 396Z" fill="#111111" stroke="#111111"></path><path d="M365 304L328 374L368 374Z" fill="#101010" stroke="#101010"></path><path d="M368 374L413 512L476 396Z" fill="#202020" stroke="#202020"></path><path d="M373 174L328 262L365 304Z" fill="#272727" stroke="#272727"></path><path d="M365 304L328 262L328 374Z" fill="#272727" stroke="#272727"></path><path d="M507 331L522 201L365 304Z" fill="#121212" stroke="#121212"></path><path d="M638 431L597 295L507 331Z" fill="#121212" stroke="#121212"></path><path d="M507 331L597 295L522 201Z" fill="#121212" stroke="#121212"></path><path d="M522 201L373 174L365 304Z" fill="#111111" stroke="#111111"></path><path d="M318 516L413 512L368 374Z" fill="#121212" stroke="#121212"></path><path d="M476 396L638 431L507 331Z" fill="#0e0e0e" stroke="#0e0e0e"></path><path d="M373 174L329 183L328 262Z" fill="#101010" stroke="#101010"></path><path d="M597 295L615 236L522 201Z" fill="#353535" stroke="#353535"></path><path d="M328 262L224 336L328 374Z" fill="#202020" stroke="#202020"></path><path d="M328 374L318 516L368 374Z" fill="#121212" stroke="#121212"></path><path d="M171 182L224 336L328 262Z" fill="#121212" stroke="#121212"></path><path d="M518 530L572 491L476 396Z" fill="#191919" stroke="#191919"></path><path d="M597 295L672 336L615 236Z" fill="#191919" stroke="#191919"></path><path d="M413 512L518 530L476 396Z" fill="#121212" stroke="#121212"></path><path d="M232 507L318 516L328 374Z" fill="#353535" stroke="#353535"></path><path d="M413 512L517 600L518 530Z" fill="#101010" stroke="#101010"></path><path d="M572 491L638 431L476 396Z" fill="#191919" stroke="#191919"></path><path d="M638 431L672 336L597 295Z" fill="#272727" stroke="#272727"></path><path d="M224 336L199 437L328 374Z" fill="#2e2e2e" stroke="#2e2e2e"></path><path d="M373 174L325 104L329 183Z" fill="#2e2e2e" stroke="#2e2e2e"></path><path d="M329 183L171 182L328 262Z" fill="#272727" stroke="#272727"></path><path d="M366 64L325 104L373 174Z" fill="#0f0f0f" stroke="#0f0f0f"></path><path d="M366 64L373 174L516 62Z" fill="#353535" stroke="#353535"></path><path d="M199 437L232 507L328 374Z" fill="#202020" stroke="#202020"></path><path d="M706 520L688 422L638 431Z" fill="#202020" stroke="#202020"></path><path d="M638 431L688 422L672 336Z" fill="#2e2e2e" stroke="#2e2e2e"></path><path d="M706 520L638 431L572 491Z" fill="#111111" stroke="#111111"></path><path d="M331 600L371 600L318 516Z" fill="#101010" stroke="#101010"></path><path d="M318 516L371 600L413 512Z" fill="#0f0f0f" stroke="#0f0f0f"></path><path d="M672 336L660 186L615 236Z" fill="#2e2e2e" stroke="#2e2e2e"></path><path d="M615 236L660 186L522 201Z" fill="#191919" stroke="#191919"></path><path d="M704 100L660 186L831 181Z" fill="#0f0f0f" stroke="#0f0f0f"></path><path d="M371 600L517 600L413 512Z" fill="#202020" stroke="#202020"></path><path d="M518 530L626 600L572 491Z" fill="#353535" stroke="#353535"></path><path d="M516 62L373 174L522 201Z" fill="#2e2e2e" stroke="#2e2e2e"></path><path d="M232 507L331 600L318 516Z" fill="#191919" stroke="#191919"></path><path d="M628 90L516 62L522 201Z" fill="#272727" stroke="#272727"></path><path d="M196 61L171 182L325 104Z" fill="#101010" stroke="#101010"></path><path d="M325 104L171 182L329 183Z" fill="#0f0f0f" stroke="#0f0f0f"></path><path d="M224 336L89 368L199 437Z" fill="#202020" stroke="#202020"></path><path d="M171 182L128 262L224 336Z" fill="#202020" stroke="#202020"></path><path d="M660 186L628 90L522 201Z" fill="#2e2e2e" stroke="#2e2e2e"></path><path d="M517 600L626 600L518 530Z" fill="#272727" stroke="#272727"></path><path d="M626 600L706 520L572 491Z" fill="#111111" stroke="#111111"></path><path d="M784 260L660 186L672 336Z" fill="#202020" stroke="#202020"></path><path d="M478 0L435 0L516 62Z" fill="#353535" stroke="#353535"></path><path d="M516 62L435 0L366 64Z" fill="#0e0e0e" stroke="#0e0e0e"></path><path d="M366 64L338 0L325 104Z" fill="#101010" stroke="#101010"></path><path d="M577 0L478 0L516 62Z" fill="#0e0e0e" stroke="#0e0e0e"></path><path d="M128 262L89 368L224 336Z" fill="#101010" stroke="#101010"></path><path d="M199 437L100 489L232 507Z" fill="#0f0f0f" stroke="#0f0f0f"></path><path d="M435 0L338 0L366 64Z" fill="#0f0f0f" stroke="#0f0f0f"></path><path d="M626 600L666 600L706 520Z" fill="#272727" stroke="#272727"></path><path d="M660 186L704 100L628 90Z" fill="#191919" stroke="#191919"></path><path d="M628 90L577 0L516 62Z" fill="#202020" stroke="#202020"></path><path d="M784 260L672 336L820 402Z" fill="#101010" stroke="#101010"></path><path d="M820 402L672 336L688 422Z" fill="#272727" stroke="#272727"></path><path d="M211 0L196 61L325 104Z" fill="#101010" stroke="#101010"></path><path d="M171 182L84 195L128 262Z" fill="#111111" stroke="#111111"></path><path d="M128 262L0 282L89 368Z" fill="#2e2e2e" stroke="#2e2e2e"></path><path d="M689 0L577 0L628 90Z" fill="#202020" stroke="#202020"></path><path d="M89 368L100 489L199 437Z" fill="#101010" stroke="#101010"></path><path d="M232 507L168 600L331 600Z" fill="#202020" stroke="#202020"></path><path d="M100 489L168 600L232 507Z" fill="#0e0e0e" stroke="#0e0e0e"></path><path d="M124 112L84 195L171 182Z" fill="#191919" stroke="#191919"></path><path d="M196 61L124 112L171 182Z" fill="#0e0e0e" stroke="#0e0e0e"></path><path d="M825 600L794 467L706 520Z" fill="#202020" stroke="#202020"></path><path d="M706 520L794 467L688 422Z" fill="#101010" stroke="#101010"></path><path d="M794 467L820 402L688 422Z" fill="#191919" stroke="#191919"></path><path d="M338 0L211 0L325 104Z" fill="#272727" stroke="#272727"></path><path d="M196 61L106 0L124 112Z" fill="#0e0e0e" stroke="#0e0e0e"></path><path d="M791 66L689 0L704 100Z" fill="#101010" stroke="#101010"></path><path d="M704 100L689 0L628 90Z" fill="#0e0e0e" stroke="#0e0e0e"></path><path d="M784 260L831 181L660 186Z" fill="#353535" stroke="#353535"></path><path d="M900 272L831 181L784 260Z" fill="#0e0e0e" stroke="#0e0e0e"></path><path d="M0 167L0 282L84 195Z" fill="#101010" stroke="#101010"></path><path d="M84 195L0 282L128 262Z" fill="#0f0f0f" stroke="#0f0f0f"></path><path d="M89 368L0 407L100 489Z" fill="#111111" stroke="#111111"></path><path d="M0 282L0 407L89 368Z" fill="#0f0f0f" stroke="#0f0f0f"></path><path d="M100 489L82 600L168 600Z" fill="#353535" stroke="#353535"></path><path d="M0 498L82 600L100 489Z" fill="#191919" stroke="#191919"></path><path d="M831 181L791 66L704 100Z" fill="#2e2e2e" stroke="#2e2e2e"></path><path d="M0 407L0 498L100 489Z" fill="#101010" stroke="#101010"></path><path d="M124 112L0 167L84 195Z" fill="#191919" stroke="#191919"></path><path d="M0 83L0 167L124 112Z" fill="#191919" stroke="#191919"></path><path d="M211 0L106 0L196 61Z" fill="#121212" stroke="#121212"></path><path d="M900 486L900 388L820 402Z" fill="#0f0f0f" stroke="#0f0f0f"></path><path d="M820 402L900 272L784 260Z" fill="#353535" stroke="#353535"></path><path d="M900 486L820 402L794 467Z" fill="#353535" stroke="#353535"></path><path d="M900 388L900 272L820 402Z" fill="#191919" stroke="#191919"></path><path d="M900 0L793 0L791 66Z" fill="#111111" stroke="#111111"></path><path d="M666 600L825 600L706 520Z" fill="#111111" stroke="#111111"></path><path d="M825 600L900 486L794 467Z" fill="#101010" stroke="#101010"></path><path d="M900 96L791 66L831 181Z" fill="#202020" stroke="#202020"></path><path d="M791 66L793 0L689 0Z" fill="#101010" stroke="#101010"></path><path d="M900 272L900 175L831 181Z" fill="#0f0f0f" stroke="#0f0f0f"></path><path d="M106 0L0 83L124 112Z" fill="#202020" stroke="#202020"></path><path d="M0 498L0 600L82 600Z" fill="#0f0f0f" stroke="#0f0f0f"></path><path d="M900 175L900 96L831 181Z" fill="#111111" stroke="#111111"></path><path d="M825 600L900 600L900 486Z" fill="#202020" stroke="#202020"></path><path d="M106 0L0 0L0 83Z" fill="#0e0e0e" stroke="#0e0e0e"></path><path d="M900 96L900 0L791 66Z" fill="#0f0f0f" stroke="#0f0f0f"></path></g></svg>