<svg id="visual" viewBox="0 0 900 600" width="900" height="600" xmlns="http://www.w3.org/2000/svg" xmlns:xlink="http://www.w3.org/1999/xlink" version="1.1"><g stroke-width="1" stroke-linejoin="bevel"><path d="M479 286L409 318L466 399Z" fill="#ececec" stroke="#ececec"></path><path d="M409 318L395 427L466 399Z" fill="#f2f2f2" stroke="#f2f2f2"></path><path d="M576 519L606 383L466 399Z" fill="#efefef" stroke="#efefef"></path><path d="M466 399L606 383L479 286Z" fill="#f1f1f1" stroke="#f1f1f1"></path><path d="M479 286L369 211L409 318Z" fill="#ececec" stroke="#ececec"></path><path d="M409 318L295 411L395 427Z" fill="#ececec" stroke="#ececec"></path><path d="M626 282L531 194L479 286Z" fill="#dedede" stroke="#dedede"></path><path d="M479 286L531 194L369 211Z" fill="#ebebeb" stroke="#ebebeb"></path><path d="M606 383L626 282L479 286Z" fill="#f2f2f2" stroke="#f2f2f2"></path><path d="M280 319L295 411L409 318Z" fill="#e8e8e8" stroke="#e8e8e8"></path><path d="M369 211L280 319L409 318Z" fill="#dbdbdb" stroke="#dbdbdb"></path><path d="M394 527L474 529L395 427Z" fill="#eeeeee" stroke="#eeeeee"></path><path d="M395 427L474 529L466 399Z" fill="#f1f1f1" stroke="#f1f1f1"></path><path d="M295 411L394 527L395 427Z" fill="#e8e8e8" stroke="#e8e8e8"></path><path d="M626 282L623 207L531 194Z" fill="#f1f1f1" stroke="#f1f1f1"></path><path d="M474 529L576 519L466 399Z" fill="#e1e1e1" stroke="#e1e1e1"></path><path d="M369 211L263 218L280 319Z" fill="#efefef" stroke="#efefef"></path><path d="M280 319L178 432L295 411Z" fill="#dbdbdb" stroke="#dbdbdb"></path><path d="M297 115L263 218L369 211Z" fill="#f1f1f1" stroke="#f1f1f1"></path><path d="M263 218L234 285L280 319Z" fill="#eeeeee" stroke="#eeeeee"></path><path d="M736 483L700 373L606 383Z" fill="#ebebeb" stroke="#ebebeb"></path><path d="M606 383L700 373L626 282Z" fill="#f1f1f1" stroke="#f1f1f1"></path><path d="M739 264L687 165L623 207Z" fill="#f1f1f1" stroke="#f1f1f1"></path><path d="M623 207L575 127L531 194Z" fill="#efefef" stroke="#efefef"></path><path d="M531 194L435 71L369 211Z" fill="#efefef" stroke="#efefef"></path><path d="M575 127L517 91L531 194Z" fill="#e1e1e1" stroke="#e1e1e1"></path><path d="M295 411L260 506L394 527Z" fill="#f1f1f1" stroke="#f1f1f1"></path><path d="M178 432L260 506L295 411Z" fill="#efefef" stroke="#efefef"></path><path d="M335 600L412 600L394 527Z" fill="#efefef" stroke="#efefef"></path><path d="M394 527L412 600L474 529Z" fill="#e8e8e8" stroke="#e8e8e8"></path><path d="M474 529L533 600L576 519Z" fill="#efefef" stroke="#efefef"></path><path d="M412 600L533 600L474 529Z" fill="#e1e1e1" stroke="#e1e1e1"></path><path d="M576 519L736 483L606 383Z" fill="#f2f2f2" stroke="#f2f2f2"></path><path d="M517 91L435 71L531 194Z" fill="#ececec" stroke="#ececec"></path><path d="M263 218L220 209L234 285Z" fill="#ebebeb" stroke="#ebebeb"></path><path d="M234 285L178 432L280 319Z" fill="#dedede" stroke="#dedede"></path><path d="M297 115L220 209L263 218Z" fill="#f1f1f1" stroke="#f1f1f1"></path><path d="M435 71L297 115L369 211Z" fill="#dbdbdb" stroke="#dbdbdb"></path><path d="M533 600L580 600L576 519Z" fill="#e5e5e5" stroke="#e5e5e5"></path><path d="M623 207L687 165L575 127Z" fill="#dedede" stroke="#dedede"></path><path d="M621 0L481 0L517 91Z" fill="#efefef" stroke="#efefef"></path><path d="M739 264L623 207L626 282Z" fill="#f2f2f2" stroke="#f2f2f2"></path><path d="M700 373L739 264L626 282Z" fill="#dbdbdb" stroke="#dbdbdb"></path><path d="M260 506L335 600L394 527Z" fill="#f1f1f1" stroke="#f1f1f1"></path><path d="M118 425L178 432L77 301Z" fill="#dbdbdb" stroke="#dbdbdb"></path><path d="M260 506L212 600L335 600Z" fill="#dbdbdb" stroke="#dbdbdb"></path><path d="M704 600L736 483L576 519Z" fill="#ebebeb" stroke="#ebebeb"></path><path d="M700 373L816 410L739 264Z" fill="#dbdbdb" stroke="#dbdbdb"></path><path d="M115 460L169 472L178 432Z" fill="#efefef" stroke="#efefef"></path><path d="M178 432L169 472L260 506Z" fill="#f2f2f2" stroke="#f2f2f2"></path><path d="M517 91L481 0L435 71Z" fill="#e8e8e8" stroke="#e8e8e8"></path><path d="M435 71L384 0L297 115Z" fill="#f2f2f2" stroke="#f2f2f2"></path><path d="M621 0L517 91L575 127Z" fill="#eeeeee" stroke="#eeeeee"></path><path d="M481 0L384 0L435 71Z" fill="#e8e8e8" stroke="#e8e8e8"></path><path d="M297 115L201 82L220 209Z" fill="#efefef" stroke="#efefef"></path><path d="M77 301L178 432L234 285Z" fill="#e1e1e1" stroke="#e1e1e1"></path><path d="M580 600L704 600L576 519Z" fill="#e8e8e8" stroke="#e8e8e8"></path><path d="M739 264L795 210L687 165Z" fill="#e1e1e1" stroke="#e1e1e1"></path><path d="M687 165L706 75L575 127Z" fill="#ececec" stroke="#ececec"></path><path d="M835 266L795 210L739 264Z" fill="#dbdbdb" stroke="#dbdbdb"></path><path d="M79 600L212 600L169 472Z" fill="#eeeeee" stroke="#eeeeee"></path><path d="M169 472L212 600L260 506Z" fill="#eeeeee" stroke="#eeeeee"></path><path d="M810 485L816 410L736 483Z" fill="#ececec" stroke="#ececec"></path><path d="M736 483L816 410L700 373Z" fill="#dbdbdb" stroke="#dbdbdb"></path><path d="M801 128L706 75L687 165Z" fill="#f1f1f1" stroke="#f1f1f1"></path><path d="M118 425L115 460L178 432Z" fill="#ebebeb" stroke="#ebebeb"></path><path d="M313 0L201 82L297 115Z" fill="#efefef" stroke="#efefef"></path><path d="M220 209L120 194L234 285Z" fill="#eeeeee" stroke="#eeeeee"></path><path d="M201 82L120 194L220 209Z" fill="#e5e5e5" stroke="#e5e5e5"></path><path d="M118 425L0 403L115 460Z" fill="#ebebeb" stroke="#ebebeb"></path><path d="M384 0L313 0L297 115Z" fill="#dedede" stroke="#dedede"></path><path d="M706 75L621 0L575 127Z" fill="#e8e8e8" stroke="#e8e8e8"></path><path d="M780 600L810 485L736 483Z" fill="#e8e8e8" stroke="#e8e8e8"></path><path d="M900 385L835 266L816 410Z" fill="#e1e1e1" stroke="#e1e1e1"></path><path d="M816 410L835 266L739 264Z" fill="#f2f2f2" stroke="#f2f2f2"></path><path d="M795 210L801 128L687 165Z" fill="#e5e5e5" stroke="#e5e5e5"></path><path d="M120 194L77 301L234 285Z" fill="#dbdbdb" stroke="#dbdbdb"></path><path d="M900 205L801 128L795 210Z" fill="#ececec" stroke="#ececec"></path><path d="M706 75L694 0L621 0Z" fill="#dbdbdb" stroke="#dbdbdb"></path><path d="M704 600L780 600L736 483Z" fill="#e5e5e5" stroke="#e5e5e5"></path><path d="M807 0L694 0L706 75Z" fill="#e1e1e1" stroke="#e1e1e1"></path><path d="M201 82L90 135L120 194Z" fill="#ebebeb" stroke="#ebebeb"></path><path d="M0 233L0 287L77 301Z" fill="#e8e8e8" stroke="#e8e8e8"></path><path d="M122 0L90 135L201 82Z" fill="#dbdbdb" stroke="#dbdbdb"></path><path d="M313 0L189 0L201 82Z" fill="#dedede" stroke="#dedede"></path><path d="M810 485L900 385L816 410Z" fill="#ebebeb" stroke="#ebebeb"></path><path d="M835 266L900 205L795 210Z" fill="#dbdbdb" stroke="#dbdbdb"></path><path d="M900 524L900 385L810 485Z" fill="#f2f2f2" stroke="#f2f2f2"></path><path d="M900 385L900 284L835 266Z" fill="#e1e1e1" stroke="#e1e1e1"></path><path d="M900 284L900 205L835 266Z" fill="#efefef" stroke="#efefef"></path><path d="M801 128L807 0L706 75Z" fill="#f2f2f2" stroke="#f2f2f2"></path><path d="M0 508L79 600L115 460Z" fill="#eeeeee" stroke="#eeeeee"></path><path d="M115 460L79 600L169 472Z" fill="#ececec" stroke="#ececec"></path><path d="M0 233L77 301L120 194Z" fill="#eeeeee" stroke="#eeeeee"></path><path d="M77 301L0 403L118 425Z" fill="#e1e1e1" stroke="#e1e1e1"></path><path d="M0 287L0 403L77 301Z" fill="#eeeeee" stroke="#eeeeee"></path><path d="M90 135L0 233L120 194Z" fill="#efefef" stroke="#efefef"></path><path d="M0 118L0 233L90 135Z" fill="#e1e1e1" stroke="#e1e1e1"></path><path d="M780 600L900 524L810 485Z" fill="#e5e5e5" stroke="#e5e5e5"></path><path d="M189 0L122 0L201 82Z" fill="#efefef" stroke="#efefef"></path><path d="M900 205L900 136L801 128Z" fill="#ebebeb" stroke="#ebebeb"></path><path d="M900 0L807 0L801 128Z" fill="#ebebeb" stroke="#ebebeb"></path><path d="M0 403L0 508L115 460Z" fill="#e1e1e1" stroke="#e1e1e1"></path><path d="M780 600L900 600L900 524Z" fill="#e1e1e1" stroke="#e1e1e1"></path><path d="M0 0L0 118L90 135Z" fill="#eeeeee" stroke="#eeeeee"></path><path d="M0 508L0 600L79 600Z" fill="#efefef" stroke="#efefef"></path><path d="M900 136L900 0L801 128Z" fill="#ececec" stroke="#ececec"></path><path d="M122 0L0 0L90 135Z" fill="#ebebeb" stroke="#ebebeb"></path></g></svg>