<?xml version="1.0" standalone="no"?>
<!DOCTYPE svg PUBLIC "-//W3C//DTD SVG 20010904//EN"
 "http://www.w3.org/TR/2001/REC-SVG-20010904/DTD/svg10.dtd">
<svg version="1.0" xmlns="http://www.w3.org/2000/svg"
 width="450.000000pt" height="254.000000pt" viewBox="0 0 450.000000 254.000000"
 preserveAspectRatio="xMidYMid meet">
<metadata>
Created by potrace 1.10, written by Peter Selinger 2001-2011
</metadata>
<g transform="translate(0.000000,254.000000) scale(0.050000,-0.050000)"
fill="#ffffff" stroke="none">
<path d="M6030 3878 c-175 -106 -645 -309 -666 -288 -5 5 19 41 53 80 55 62
143 210 143 239 0 6 -47 -26 -105 -70 -58 -44 -176 -116 -263 -158 -154 -76
-156 -78 -90 -86 46 -6 31 -10 -45 -12 -63 -2 -130 -9 -150 -17 -34 -12 -34
-10 -7 24 27 33 27 36 0 25 -16 -8 -115 -47 -218 -89 -111 -44 -192 -89 -197
-108 -4 -18 -39 -47 -76 -64 -97 -47 -140 -139 -111 -236 30 -101 55 -112 104
-50 23 29 58 52 79 52 48 0 49 -16 5 -64 -54 -60 -8 -81 99 -45 123 42 202 11
211 -84 17 -175 -218 -187 -393 -21 l-68 64 43 -84 c54 -108 128 -163 383
-284 115 -54 240 -121 278 -150 37 -28 72 -48 77 -43 18 18 -83 134 -168 192
l-89 62 50 60 c117 139 7 334 -211 374 l-88 16 73 21 c39 12 98 17 130 13 l57
-9 -54 31 c-83 48 -270 60 -371 25 -47 -16 -85 -22 -85 -13 0 39 107 139 149
139 30 0 50 15 57 40 19 75 452 204 491 147 7 -11 56 -32 108 -46 93 -26 288
-135 271 -151 -4 -5 -52 5 -106 21 -127 38 -155 28 -69 -26 125 -77 271 -252
331 -397 l31 -74 -82 66 c-100 78 -117 69 -65 -33 80 -158 105 -410 55 -547
l-25 -70 -15 70 c-9 39 -33 102 -53 140 -37 68 -38 68 -23 10 50 -199 -17
-470 -146 -591 l-52 -48 22 56 c24 64 26 204 3 263 -14 34 -19 30 -40 -34 -31
-95 -167 -247 -264 -297 -102 -52 -102 -52 -57 46 117 259 17 467 -320 662
-296 172 -448 359 -500 617 -24 116 -4 259 40 286 87 54 2 135 -222 210 -181
61 -326 133 -430 212 -81 61 -89 64 -89 27 0 -106 124 -260 270 -336 101 -52
79 -53 -88 -3 -173 51 -413 176 -563 290 -132 102 -145 90 -68 -65 96 -191
277 -312 597 -398 176 -46 178 -48 62 -36 -231 25 -493 105 -737 225 -30 15
63 -146 110 -189 121 -111 352 -183 667 -208 188 -15 184 -16 -70 -8 -237 7
-434 34 -600 82 -49 14 -49 13 -18 -34 85 -131 339 -219 628 -219 234 0 129
-21 -182 -36 l-298 -15 110 -59 c117 -63 370 -82 600 -46 l90 14 -78 -29 c-78
-29 -342 -82 -472 -94 l-70 -7 80 -37 c115 -53 314 -62 468 -23 71 18 132 29
136 25 15 -15 -245 -109 -339 -123 -122 -19 -120 -40 6 -70 125 -30 272 -13
424 49 63 25 115 43 115 39 0 -19 -177 -116 -288 -158 -154 -59 -118 -78 124
-66 133 7 199 21 280 60 88 42 100 45 71 13 -78 -86 -213 -157 -299 -157 -108
0 -216 -114 -300 -316 -67 -162 -115 -220 -196 -235 -69 -14 -158 -149 -98
-149 32 0 29 -15 -38 -205 -23 -63 -53 -125 -69 -137 -53 -45 -24 -50 243 -49
233 1 270 5 270 33 0 58 -68 98 -167 98 -104 0 -112 16 -66 126 37 86 87 126
182 143 123 22 173 57 320 220 129 145 217 212 275 210 14 0 -6 -17 -44 -38
-118 -62 -150 -109 -112 -164 43 -62 40 -129 -7 -162 -50 -35 -34 -107 28
-123 97 -24 246 -228 191 -262 -54 -33 -21 -87 40 -64 44 17 76 16 126 -2 83
-30 294 -32 294 -3 0 20 32 15 115 -16 40 -15 29 28 -22 88 -43 50 -60 54
-192 56 -144 1 -146 2 -212 81 -119 141 -122 156 -53 243 33 42 72 118 86 167
14 50 27 92 29 95 11 18 149 -61 149 -85 0 -17 -34 -67 -75 -113 l-75 -83 96
14 c52 8 147 32 210 54 l114 40 35 -43 c19 -24 35 -69 35 -101 0 -43 9 -58 38
-58 68 0 145 -216 92 -260 -59 -49 -38 -97 36 -81 36 8 88 7 115 -3 58 -22
419 -13 419 10 0 54 -103 114 -196 114 -234 0 -342 432 -173 691 37 56 73 127
80 157 8 30 26 60 41 66 35 13 68 131 68 241 l0 85 80 0 c85 0 104 26 42 59
-70 37 -67 79 4 69 35 -5 91 -2 124 8 l60 17 -90 47 -90 47 70 18 c261 66 267
77 55 105 -115 15 -123 41 -18 55 42 6 121 32 175 57 l98 47 -200 11 c-156 8
-185 13 -130 25 110 24 265 104 326 169 l55 59 -205 -46 c-285 -64 -390 -64
-234 0 159 65 241 120 337 225 98 106 95 123 -12 77 -101 -43 -469 -169 -495
-169 -12 0 36 34 106 75 153 91 500 459 418 444 -4 -1 -51 -28 -106 -61z"/>
<path d="M4740 3360 c-16 -11 -55 -20 -87 -20 -71 0 -62 -40 15 -66 45 -15 67
-10 116 25 42 32 75 41 113 32 50 -11 51 -10 14 19 -44 34 -126 39 -171 10z"/>
<path d="M3187 2449 c-86 -132 -47 -333 79 -410 126 -77 418 -26 514 91 29 35
28 35 -36 2 -275 -142 -580 35 -523 303 17 78 10 81 -34 14z"/>
<path d="M3076 2405 c-292 -312 16 -768 404 -600 100 44 171 103 100 85 -364
-96 -636 175 -480 479 49 97 42 107 -24 36z"/>
</g>
</svg>
